<?xml version="1.0" encoding="UTF-8"?> <svg xmlns="http://www.w3.org/2000/svg" width="500" height="500" viewBox="0 0 500 500" fill="none"><path d="M500 250C500 388.075 388.075 500 250 500C111.938 500 -1.92787e-05 388.075 -1.92787e-05 250C-1.92787e-05 111.925 111.938 -1.92787e-05 250 -1.92787e-05C388.075 -1.92787e-05 500 111.925 500 250Z" fill="black"></path><path d="M379.057 425.76L379.069 425.664L300.828 415.298L301.36 363.242C305.92 357.098 311.036 350.797 316.708 344.435L316.225 391.689L406.706 401.994C406.307 402.393 405.932 402.792 405.533 403.192C397.236 411.489 388.37 419.012 379.057 425.76ZM266.878 426.232C268.91 420.85 271.316 415.069 274.122 409.021L273.711 449.067L321.655 455.429C300.683 462.517 278.549 466.411 255.823 466.822C256.198 463.956 258.568 448.245 266.878 426.232ZM181.694 455.332L228.936 449.067L228.501 406.735C231.766 413.605 234.536 420.173 236.834 426.232C245.131 448.233 247.514 463.944 247.901 466.822C225.042 466.423 202.775 462.492 181.694 455.332ZM98.0823 403.192C97.659 402.768 97.2356 402.321 96.8123 401.897L186.423 391.689L185.927 343.225C191.817 349.744 197.078 356.203 201.795 362.492L201.275 362.505L201.82 415.298L124.304 425.567C115.088 418.866 106.307 411.416 98.0823 403.192ZM89.7852 272.604L36.5075 279.667C35.2134 270.306 34.4998 260.811 34.4272 251.22C54.807 257.388 73.179 264.633 89.7852 272.604ZM47.8888 173.825C53.1379 187.867 64.5554 214.028 85.5279 243.371C92.6154 253.288 101.166 264.041 111.35 274.986C89.3619 262.843 63.9144 251.922 34.4998 243.177C35.1892 219.157 39.7489 195.802 47.8888 173.825ZM92.2889 101.789C93.583 116.738 97.5864 141.496 109.693 168.008C113.781 176.97 119.018 186.501 125.695 196.056C104.867 182.425 80.9681 170.028 53.5975 159.916C63.1524 138.799 76.1423 119.193 92.2889 101.789ZM164.168 50.3976C164.168 63.2544 165.281 84.0091 170.833 108.465C171.837 112.879 173.01 117.512 174.389 122.313C152.195 106.457 128.452 95.2089 107.032 87.2989C124.243 71.8901 143.498 59.505 164.168 50.3976ZM251.807 32.0739C276.856 32.0739 301.263 36.2829 324.207 44.3744C278.573 89.0527 259.754 139.694 252.219 177.974C244.659 139.633 225.791 88.8954 180.013 44.1688C202.787 36.2225 226.977 32.0739 251.807 32.0739ZM396.619 87.3231C369.877 97.1804 348.046 108.997 330.218 121.66C331.512 117.088 332.637 112.674 333.593 108.465C339.096 84.2389 340.245 63.6414 340.257 50.7483C360.637 59.8316 379.626 72.1199 396.619 87.3231ZM450.477 160.908C422.683 170.85 398.445 183.271 377.364 196.987C384.355 187.117 389.809 177.26 394.031 168.008C406.101 141.556 410.117 116.859 411.423 101.885C427.775 119.544 440.898 139.452 450.477 160.908ZM469.115 243.213C442.047 251.268 418.329 261.15 397.586 272.156C405.871 262.976 413.068 253.978 419.212 245.523C439.06 218.286 451.033 193.443 457.335 178.3C464.471 198.97 468.486 220.802 469.115 243.213ZM385.854 300.531L385.987 287.601C391.853 284.082 397.998 280.659 404.42 277.345L466.212 285.533C464.821 293.975 462.935 302.284 460.564 310.436L385.854 300.531ZM364.604 329.22L364.858 303.579C368.789 300.313 372.574 297.023 376.191 293.721C377.485 292.875 378.815 292.028 380.146 291.193L380 305.61L458.847 316.06C456.307 323.958 453.331 331.699 449.909 339.246L364.604 329.22ZM343.341 357.908L343.728 319.628C349.05 315.939 354.142 312.166 359.004 308.32L358.738 334.299L447.308 344.774C442.894 353.796 437.862 362.517 432.202 370.886L343.341 357.908ZM143.91 334.299L143.607 305.163C148.01 308.743 152.594 312.287 157.395 315.758C157.903 316.181 158.387 316.617 158.895 317.04L159.306 357.908L71.3164 370.765C65.6802 362.396 60.6488 353.675 56.2584 344.677L143.91 334.299ZM122.659 305.61L122.502 290.528C127.823 293.842 132.903 297.229 137.765 300.664L138.056 329.22L53.6459 339.137C50.2352 331.59 47.2598 323.849 44.732 315.939L122.659 305.61ZM190.027 197.773L184.875 140.347C185.83 141.169 186.798 141.98 187.753 142.826C191.067 145.765 194.285 148.862 197.441 152.067L202.787 211.597L131.96 191.714C129.202 187.722 126.602 183.574 124.159 179.28L190.027 197.773ZM219.635 165.77C208.677 151.329 196.062 138.992 182.637 128.494C172.066 95.5113 170.204 66.1451 170.167 50.0468L219.635 165.77ZM247.598 216.121L175.925 48.4261C228.065 99.3816 244.418 158.199 249.243 196.515C248.336 203.857 247.84 210.46 247.598 216.121ZM265.426 196.007C265.342 196.189 265.233 196.382 265.148 196.576C262.427 202.188 260.153 207.642 258.218 212.879L256.827 216.121C256.585 210.46 256.089 203.857 255.182 196.515C260.008 158.199 276.372 99.3816 328.513 48.4261L265.426 196.007ZM285.625 163.823L334.258 50.0227C334.234 65.9999 332.432 95.0396 322.066 127.72C306.936 139.5 294.998 151.813 285.625 163.823ZM371.849 191.58L300.574 211.597L305.883 152.442C309.524 148.753 313.249 145.197 317.095 141.847C317.543 141.447 318.015 141.072 318.474 140.673L313.346 197.773L379.65 179.159C377.207 183.453 374.606 187.589 371.849 191.58ZM396.849 215.831L261.628 344.169C267.845 329.873 279.323 307.122 298.143 281.953C309.705 266.496 325.114 248.825 344.962 231.469C347.357 229.546 349.655 227.587 351.868 225.603C375.925 205.695 406.004 186.537 443.063 171.963L396.849 215.831ZM247.937 271.346V338.025C239.144 318.262 221.824 285.823 191.745 252.514C207.698 260.485 226.299 267.004 247.937 271.346ZM283.46 230.659L288.66 172.64C292.736 167.113 297.054 161.9 301.59 156.977L296.22 216.847L368.208 196.624C364.725 201.293 361.048 205.756 357.117 209.977L283.46 230.659ZM333.339 230.913L266.333 249.732L270.482 203.494C271.075 202.188 271.655 200.893 272.296 199.563C275.852 192.282 279.88 185.46 284.209 179.002L279.093 235.908L351.626 215.54C345.7 220.257 340.088 225.047 334.778 229.897C334.306 230.236 333.822 230.574 333.339 230.913ZM255.678 271.37C277.521 266.992 296.268 260.4 312.342 252.345C281.996 285.751 264.519 318.504 255.678 338.375V271.37ZM259.959 233.816C260.782 230.429 261.774 226.849 262.935 223.136C263.697 220.693 264.58 218.177 265.511 215.625L261.979 254.969L322.913 237.867C303.682 249.66 281.283 258.223 255.775 263.484C255.932 257.836 256.718 247.229 259.959 233.816ZM181.295 238.097L241.394 254.969L237.741 214.367C238.745 217.028 239.676 219.653 240.487 222.205C241.696 225.966 242.712 229.595 243.559 233.042C246.97 246.818 247.792 257.739 247.949 263.484C222.635 258.271 200.429 249.757 181.295 238.097ZM152.944 215.879L224.268 235.908L219.103 178.385C223.602 185.025 227.751 192.052 231.428 199.563C231.912 200.567 232.335 201.547 232.794 202.538L237.04 249.732L170.579 231.07C170.53 231.034 170.494 231.01 170.446 230.985C164.955 225.893 159.113 220.85 152.944 215.879ZM214.652 172.108L219.913 230.659L146.8 210.134C142.845 205.889 139.084 201.438 135.576 196.745L207.153 216.847L201.735 156.53C206.27 161.416 210.576 166.617 214.652 172.108ZM449.727 176.317C443.45 191.169 431.791 215.117 412.959 240.976C402.364 255.502 388.636 271.745 371.389 287.601C356.113 297.567 342.797 308.078 331.222 318.709C312.536 330.78 291.164 341.605 266.829 349.914L313.697 305.417L449.727 176.317ZM330.46 178.712L387.959 162.565C387.584 163.412 387.245 164.234 386.858 165.081C385.395 168.274 383.822 171.37 382.214 174.418L317.7 192.536L322.671 137.154C323.868 136.174 325.078 135.206 326.287 134.251C329.166 132.013 332.093 129.861 335.032 127.78L330.46 178.712ZM394.139 146.576C392.881 150.313 391.478 154.135 389.906 158.005L334.826 173.475L339.18 124.926C343.22 122.205 347.296 119.628 351.396 117.197L347.586 159.65L394.139 146.576ZM398.639 131.058C397.756 134.638 396.74 138.339 395.567 142.161L351.941 154.401L355.496 114.815C359.536 112.517 363.576 110.376 367.603 108.344L364.713 140.589L398.639 131.058ZM402.231 112.976C401.59 117.197 400.743 121.818 399.642 126.752L369.067 135.34L371.667 106.324C375.719 104.365 379.747 102.526 383.726 100.809L382.129 118.612L402.231 112.976ZM404.13 94.3744C403.96 97.9907 403.573 102.925 402.823 108.779L386.483 113.375L387.765 99.1035C392.942 96.9627 398.034 95.0033 402.969 93.2496C403.356 93.6245 403.743 93.9994 404.13 94.3744ZM172.901 178.712L168.305 127.514C171.716 129.909 175.078 132.401 178.392 135.013C179.154 135.618 179.916 136.247 180.666 136.851L185.661 192.536L121.57 174.539C119.938 171.443 118.341 168.31 116.866 165.081C116.491 164.282 116.164 163.484 115.813 162.686L172.901 178.712ZM155.787 159.65L151.953 116.992C156.053 119.411 160.129 121.951 164.168 124.66L168.547 173.475L113.866 158.114C112.282 154.244 110.879 150.434 109.621 146.684L155.787 159.65ZM138.66 140.589L135.746 108.15C139.773 110.17 143.813 112.323 147.852 114.609L151.42 154.401L108.194 142.27C107.008 138.448 105.992 134.747 105.109 131.167L138.66 140.589ZM121.244 118.612L119.635 100.652C123.602 102.357 127.63 104.195 131.682 106.155L134.294 135.34L104.093 126.861C102.993 121.926 102.146 117.306 101.505 113.073L121.244 118.612ZM99.582 94.2776C99.9449 93.9269 100.308 93.5761 100.671 93.2254C105.521 94.9428 110.516 96.8538 115.596 98.9583L116.89 113.375L100.912 108.888C100.138 102.925 99.7514 97.9182 99.582 94.2776ZM65.3174 172.821C97.3203 186.198 124.098 202.78 146.401 220.499C151.711 225.688 157.553 230.744 164.011 235.557C208.835 276.583 231.96 320.451 241.89 343.455L199.582 302.575L65.3174 172.821ZM92.0107 239.137C73.5782 213.375 62.584 189.778 56.8389 175.386L236.943 349.442C207.734 338.629 182.952 324.684 162.064 309.565C156.766 305.139 151.166 300.76 145.216 296.455C122.054 277.103 104.638 256.772 92.0107 239.137ZM116.66 286.972L116.793 300.531L43.0145 310.315C40.6561 302.163 38.7693 293.842 37.3784 285.412L99.0983 277.224C105.206 280.381 111.048 283.634 116.66 286.972ZM180.557 386.61L91.793 396.624C85.7577 390.069 80.1698 383.223 75.0416 376.087L165.16 363L164.749 322.156C170.228 327.067 175.32 332.001 180.061 336.924L180.557 386.61ZM220.216 375.603C212.56 363.448 202.799 350.18 190.475 336.706C207.625 346.14 226.723 354.57 247.937 361.404V434.251C247.103 431.687 246.183 429.014 245.167 426.232C239.846 411.682 231.936 394.217 220.216 375.603ZM223.07 443.987L170.107 451.014C156.573 445.523 143.583 438.678 131.355 430.49L207.673 420.378L207.165 369.931C209.391 373.148 211.495 376.305 213.443 379.389C216.817 384.711 219.817 389.936 222.574 395.052L223.07 443.987ZM283.508 375.603C280.182 380.889 277.182 386.065 274.449 391.133H274.304V391.399C267.458 404.05 262.342 415.891 258.556 426.232C257.492 429.135 256.537 431.917 255.678 434.565V361.525C275.755 355.683 294.043 348.208 310.588 339.633C299.509 352.103 290.608 364.331 283.508 375.603ZM280.049 397.072C283.024 391.435 286.338 385.642 290.063 379.728C291.745 377.042 293.559 374.297 295.47 371.503L294.974 420.378L372.103 430.598C359.851 438.787 346.837 445.62 333.266 451.111L279.577 443.987L280.049 397.072ZM322.586 338.061C326.759 333.67 331.198 329.256 335.963 324.865C336.604 324.442 337.245 324.019 337.886 323.595L337.487 363L428.477 376.22C423.215 383.525 417.47 390.54 411.254 397.229L411.326 396.672L322.09 386.61L322.586 338.061ZM467.095 279.788L413.685 272.713C430.327 264.718 448.76 257.449 469.188 251.256C469.103 260.884 468.39 270.402 467.095 279.788ZM476.771 241.072C475.828 215.177 470.518 190.395 461.532 167.451C462.439 164.899 462.911 163.375 463.007 163.085C463.431 161.67 463.092 160.122 462.015 159.118C461.096 158.247 459.851 157.921 458.653 158.15C460.165 157.945 461.701 158.646 462.511 160.001C463.443 161.549 463.177 163.545 461.858 164.79L460.854 165.746C459.863 163.279 458.835 160.835 457.758 158.416C457.855 158.38 457.94 158.332 458.036 158.296C458.012 158.308 457.988 158.308 457.964 158.32C457.891 158.344 457.819 158.368 457.746 158.392C446.631 133.283 431.053 110.581 412.016 91.3023C409.693 88.9559 407.311 86.6458 404.88 84.3961C386.012 66.8828 364.12 52.5626 340.088 42.3062C339.374 42.0038 338.66 41.7014 337.947 41.4111C336.12 40.6613 334.294 39.9235 332.444 39.222C331.778 38.9559 331.101 38.7019 330.424 38.4479C305.956 29.3284 279.468 24.3333 251.807 24.3333C224.364 24.3333 198.07 29.2437 173.76 38.2302C173.131 38.4721 172.502 38.714 171.873 38.9559C170.022 39.6574 168.184 40.3831 166.358 41.133C165.692 41.399 165.015 41.6651 164.35 41.9433C140.003 52.2239 117.857 66.6651 98.7717 84.3599C96.3648 86.5974 94.0063 88.8712 91.7083 91.2055C72.5017 110.63 56.8026 133.525 45.6512 158.888C45.1432 160.037 44.6353 161.198 44.1394 162.359C33.9192 186.718 27.8597 213.254 26.8438 241.072C26.747 243.685 26.6744 246.31 26.6744 248.946C26.6744 249.128 26.6624 249.297 26.6624 249.466C26.6624 321.152 60.1771 385.001 112.366 426.232C150.719 456.53 199.147 474.611 251.807 474.611C304.468 474.611 352.896 456.53 391.249 426.232C443.438 385.001 476.953 321.152 476.953 249.466C476.953 249.309 476.941 249.14 476.941 248.983C476.941 246.334 476.868 243.697 476.771 241.072Z" fill="white"></path></svg> 